<svg width="360" height="160" viewBox="0 0 360 160" fill="none" xmlns="http://www.w3.org/2000/svg">
<path fill-rule="evenodd" clip-rule="evenodd" d="M76.1049 37.4264C75.7682 16.732 58.8282 -0.000305176 38.055 -0.000305176C17.072 -0.000305176 0 17.0717 0 38.0547V121.946L0.00510844 122.574C0.341831 143.268 17.2818 160 38.055 160C59.038 160 76.11 142.929 76.11 121.946V38.0547L76.1049 37.4264ZM19.221 99.1147H56.89V106.856L57.159 106.911C61.8894 107.943 65.443 112.16 65.443 117.196C65.443 122.325 61.754 126.608 56.89 127.534V130.997L56.8867 131.296C56.6977 139.969 48.323 146.975 38.055 146.975C27.669 146.975 19.221 139.807 19.221 130.997V99.1147ZM38.0549 143.42C44.7059 143.42 50.3749 139.945 52.4689 135.112H23.6419L23.7618 135.379C25.9452 140.072 31.5271 143.42 38.0549 143.42ZM53.3346 106.787V102.67H22.7756V130.997L22.7809 131.277L22.7936 131.557H53.3166L53.3293 131.277L53.3346 130.997V127.602L53.0599 127.557C48.1375 126.679 44.3886 122.366 44.3886 117.195C44.3886 111.928 48.2776 107.552 53.3346 106.787ZM53.3346 123.978V110.411L53.0928 110.472C50.1308 111.277 47.9446 113.982 47.9446 117.195C47.9446 120.494 50.2506 123.259 53.3346 123.978ZM10.386 50.9747H65.724L50.762 83.3467L59.229 95.5587H16.881L25.348 83.3467L24.096 80.6377L23.6964 80.7802C22.6213 81.1397 21.4717 81.3357 20.277 81.3357C14.319 81.3357 9.471 76.4887 9.471 70.5307C9.471 66.4647 11.728 62.9177 15.054 61.0747L10.386 50.9747ZM52.4368 92.0026L47.5068 84.8926H28.6028L23.6728 92.0026H52.4368ZM47.7736 81.3357L60.1646 54.5297H15.9456L18.4216 59.8857L18.7853 59.8288C19.2728 59.7605 19.7702 59.7227 20.2766 59.7227C26.2356 59.7227 31.0836 64.5717 31.0836 70.5307C31.0836 73.8667 29.5636 76.8527 27.1796 78.8367L28.3366 81.3357H47.7736ZM22.5956 77.3932L16.5536 64.3192L16.3303 64.4592C14.3451 65.7542 13.0256 67.9874 13.0256 70.5302C13.0256 74.5282 16.2786 77.7812 20.2766 77.7812C21.0886 77.7812 21.8676 77.6402 22.5956 77.3932ZM27.5276 70.5303C27.5276 66.5313 24.2746 63.2793 20.2766 63.2793C20.2174 63.2793 20.1597 63.2832 20.1019 63.2871C20.0669 63.2894 20.032 63.2918 19.9966 63.2933L25.6056 75.4293L25.7996 75.2102C26.8747 73.9469 27.5276 72.3153 27.5276 70.5303ZM38.055 13.5767L39.263 14.6957L39.519 14.939C40.7301 16.1093 45.7093 21.1457 48.529 27.4457C53.9072 26.9801 58.6765 27.5535 59.5225 27.666L61.537 27.9497L61.124 29.8247L61.0606 30.0915C60.7863 31.1946 59.6048 35.4534 56.839 39.5287C55.841 40.9967 54.734 42.2967 53.546 43.3927C52.504 44.3527 51.383 45.1717 50.213 45.8267C48.274 46.9117 46.083 47.4357 43.918 47.4357C42.912 47.4357 41.913 47.3197 40.947 47.0977C40.018 47.3057 39.051 47.4187 38.055 47.4187C37.059 47.4187 36.092 47.3057 35.163 47.0977C34.197 47.3197 33.198 47.4357 32.192 47.4357C30.027 47.4357 27.836 46.9127 25.897 45.8267C18.1178 41.4705 15.439 31.6892 15.0378 30.046L14.572 27.9497L16.473 27.6817L17.3675 27.5739C19.1108 27.3864 23.1381 27.0618 27.581 27.4457C30.4007 21.1457 35.3799 16.1093 36.591 14.939L38.055 13.5767ZM34.8722 32.6021C33.3232 31.9921 31.6222 31.5781 29.9022 31.3051C29.4432 32.7721 29.1662 34.2711 29.1662 35.7601C29.1662 39.0921 31.3842 41.9591 34.5442 43.2031C33.0512 41.3041 32.4442 39.0371 32.8362 36.7661C33.0982 35.2461 33.8092 33.8191 34.8722 32.6021ZM46.9437 35.7596C46.9437 34.2726 46.6667 32.7736 46.2087 31.3066C44.4887 31.5796 42.7887 31.9956 41.2397 32.6046C42.3017 33.8206 43.0117 35.2456 43.2737 36.7666C43.6657 39.0376 43.0587 41.3036 41.5657 43.2036C44.7257 41.9586 46.9437 39.0916 46.9437 35.7596ZM19.6412 30.9518L19.029 30.9956C20.063 34.0466 22.616 39.9146 27.634 42.7246C27.879 42.8616 28.133 42.9826 28.391 43.0946C26.654 41.0896 25.611 38.5376 25.611 35.7596C25.611 34.1246 25.871 32.4996 26.312 30.9196C23.7449 30.7605 21.3595 30.8384 19.6412 30.9518ZM57.086 30.9963C55.974 30.9103 54.483 30.8283 52.795 30.8283C51.848 30.8283 50.837 30.8563 49.799 30.9203C50.24 32.5003 50.499 34.1253 50.499 35.7593C50.499 38.5373 49.456 41.0903 47.719 43.0933C47.978 42.9823 48.231 42.8613 48.476 42.7243C49.404 42.2053 50.298 41.5503 51.136 40.7783C52.123 39.8673 53.052 38.7753 53.897 37.5313C55.3388 35.406 56.2962 33.204 56.8831 31.5778L57.086 30.9963ZM39.7699 37.3698C39.5799 36.2698 38.9809 35.2608 38.0549 34.4258C37.1289 35.2608 36.5299 36.2698 36.3399 37.3698C36.1079 38.7218 36.5339 40.0998 37.5439 41.2518C37.7029 41.4338 37.8739 41.6058 38.0549 41.7688C38.2359 41.6058 38.4069 41.4338 38.5669 41.2518C39.5759 40.0998 40.0019 38.7218 39.7699 37.3698ZM38.4206 18.9145L38.0552 18.5235C36.3802 20.2945 33.3302 23.8185 31.2752 27.9375C33.6512 28.3765 35.9992 29.0755 38.0552 30.1545C40.1102 29.0755 42.4582 28.3755 44.8342 27.9375C42.9209 24.1026 40.146 20.7834 38.4206 18.9145ZM56.8899 123.877V110.512C59.7749 111.366 61.8869 114.037 61.8869 117.196C61.8869 120.354 59.7749 123.024 56.8899 123.877Z" fill="#B98943"/>
<path fill-rule="evenodd" clip-rule="evenodd" d="M160.5 76.943H176.153V23.069H160.5V76.943ZM132.569 65.0762C137.519 65.0762 139.557 63.2572 139.557 59.9072C139.557 56.7042 137.592 55.0292 132.641 55.0292H111.019V65.0762H132.569ZM132.423 44.1812C137.228 44.1812 138.756 42.2892 138.756 39.6682C138.756 37.0472 137.228 35.1542 132.715 35.1542H111.019V44.1812H132.423ZM95.4386 23.0692H134.17C142.761 23.0692 153.827 24.2342 153.827 36.2462C153.827 44.0362 149.167 47.5302 143.707 48.6952C150.405 49.9332 154.991 53.1372 154.991 61.8732C154.991 73.9582 143.562 76.9432 134.753 76.9432H95.4386V23.0692ZM204.444 49.0591C209.904 49.0591 213.617 52.4091 213.617 57.5771C213.617 63.2571 209.976 66.1681 204.444 66.1681C198.911 66.1681 195.198 62.7471 195.198 57.5771C195.198 51.8991 198.984 49.0591 204.444 49.0591ZM204.444 37.1201C194.907 37.1201 179.546 40.8331 179.546 57.4321C179.546 73.9581 194.979 77.7441 204.444 77.7441C213.909 77.7441 229.343 73.9581 229.343 57.4321C229.343 40.8331 213.909 37.1201 204.444 37.1201ZM264.505 57.5771C264.505 52.4091 260.792 49.0591 255.332 49.0591C249.872 49.0591 246.086 51.8991 246.086 57.5771C246.086 62.7471 249.799 66.1681 255.332 66.1681C260.865 66.1681 264.505 63.2571 264.505 57.5771ZM230.435 57.4321C230.435 40.8331 245.795 37.1201 255.332 37.1201C264.797 37.1201 280.231 40.8331 280.231 57.4321C280.231 73.9581 264.797 77.7441 255.332 77.7441C245.868 77.7441 230.435 73.9581 230.435 57.4321ZM283.486 76.9434H299.137V52.1904C300.812 50.9524 303.724 49.9334 307.947 49.9334C312.751 49.9334 313.843 51.2444 313.843 53.5014V76.9434H329.569V52.1174C331.752 50.8064 334.738 49.9334 338.377 49.9334C343.183 49.9334 344.275 51.2444 344.275 53.5014V76.9434H360V50.5154C360 39.0134 353.157 37.1204 345.512 37.1204C338.087 37.1204 331.899 39.1584 327.749 42.3624C325.274 37.9934 320.323 37.1204 315.081 37.1204C306.708 37.1204 301.248 39.9604 299.137 41.7064V37.9214H283.486V76.9434Z" fill="#B98943"/>
<path fill-rule="evenodd" clip-rule="evenodd" d="M124.628 81.0189C108.259 81.0189 92.9641 88.8819 92.9641 109.048C92.9641 129.069 107.186 136.931 124.562 136.931C138.314 136.931 149.584 131.034 154.146 119.313L140.93 114.581C138.447 121.206 132.208 124.336 124.628 124.336C113.76 124.336 107.655 118.367 107.655 109.048C107.655 99.4379 113.693 93.9779 124.562 93.9779C133.014 93.9779 138.447 97.4729 140.259 102.714L154.079 98.2739C150.926 88.6629 141.869 81.0189 124.628 81.0189ZM176.153 135.912H160.5V82.038H176.153V135.912ZM181.483 123.317V96.8894H197.208V120.768C197.208 123.026 198.591 124.336 203.396 124.336C207.619 124.336 210.967 123.317 212.642 122.079V96.8894H228.295V135.912H212.642V132.126C210.531 133.874 204.633 136.713 196.261 136.713C188.617 136.713 181.483 134.819 181.483 123.317ZM257.451 108.975C262.402 108.975 266.115 111.086 266.115 116.546C266.115 122.007 262.329 124.919 257.596 124.919C255.413 124.919 251.408 124.264 249.443 122.953V111.378C250.535 110.285 253.666 108.975 257.451 108.975ZM249.443 82.1109H233.791V135.912H249.443V133.728C252.792 135.62 256.65 136.567 262.839 136.567C271.72 136.567 281.84 129.869 281.84 116.474C281.84 103.078 272.521 96.1619 263.713 96.1619C255.413 96.1619 252.501 98.1269 249.443 100.603V82.1109Z" fill="#B98943"/>
</svg>
