<svg width="99" height="67" viewBox="0 0 99 67" fill="none" xmlns="http://www.w3.org/2000/svg">
<path d="M19.1398 13.8348C19.1161 13.8536 19.0885 13.8638 19.0593 13.8638C19.0332 13.8638 19.0079 13.8567 18.985 13.8403C18.9377 13.8074 18.9187 13.7478 18.9377 13.6938L23.7881 0.0846309C23.8047 0.0336956 23.8529 0 23.9081 0H30.7089C30.7507 0 30.7902 0.0203741 30.8139 0.0540697C30.8383 0.088549 30.8447 0.130864 30.8297 0.170045L27.0167 10.8704C26.9994 10.9197 26.9536 10.9534 26.8999 10.9558C24.3179 11.0357 21.8457 11.8663 19.7525 13.3631C19.5433 13.5135 19.3419 13.671 19.1398 13.8348Z" fill="#B98943"/>
<path d="M27.3117 42.408C29.4665 42.408 31.4018 43.7668 32.1258 45.7901C32.1487 45.8559 32.2221 45.8904 32.2893 45.8685L36.9786 44.2213C37.011 44.2095 37.0363 44.186 37.052 44.1555C37.0663 44.1265 37.0678 44.0904 37.056 44.0583C35.5937 39.9694 31.6765 37.2212 27.3117 37.2212C21.6116 37.2212 16.9744 41.8242 16.9744 47.4804C16.9744 53.1389 21.6116 57.7419 27.3117 57.7419C31.6765 57.7419 35.5937 54.9937 37.056 50.9048C37.0678 50.8734 37.0663 50.8374 37.0505 50.806C37.0363 50.7771 37.0094 50.7535 36.9786 50.7418L32.2893 49.0946C32.2221 49.0727 32.1487 49.1072 32.1242 49.173C31.4002 51.1963 29.4665 52.5551 27.3117 52.5551C24.4929 52.5551 22.2007 50.2787 22.2007 47.4804C22.2007 44.6844 24.4929 42.408 27.3117 42.408Z" fill="#B98943"/>
<path d="M54.6097 66.83L48.3767 49.3357C48.3578 49.2792 48.3017 49.2416 48.2417 49.2518C48.1809 49.2589 48.1335 49.3067 48.1272 49.3662C47.9345 51.5086 47.411 53.5907 46.5717 55.5592C46.0806 56.7119 45.4742 57.8356 44.7643 58.8997C44.743 58.9342 44.7375 58.975 44.7517 59.0141L47.5666 66.9154C47.5855 66.9663 47.6337 67 47.6882 67H54.4905C54.5307 67 54.5702 66.9796 54.5939 66.9459C54.6192 66.9115 54.6239 66.8699 54.6097 66.83Z" fill="#B98943"/>
<path d="M8.05044 55.5582C7.20953 53.5866 6.68603 51.499 6.49259 49.3535C6.48706 49.2955 6.44126 49.2461 6.38125 49.2398C6.32282 49.2296 6.26439 49.2665 6.24544 49.3229L0.00690903 66.8313C-0.00651397 66.8705 -0.000197015 66.9128 0.0242802 66.9473C0.0479679 66.9802 0.0874472 66.999 0.128506 66.999H6.93002C6.98529 66.999 7.03266 66.9653 7.05003 66.9144L9.86729 59.0084C9.8815 58.9708 9.87597 58.9277 9.85386 58.8964C9.14876 57.8353 8.54078 56.7109 8.05044 55.5582Z" fill="#B98943"/>
<path d="M46.4786 45.8236C46.5267 46.3698 46.5504 46.927 46.5504 47.4786C46.5504 50.0552 46.0411 52.5565 45.0368 54.9113C44.7833 55.5076 44.4864 56.1102 44.1572 56.7042C43.2839 58.273 42.1942 59.7117 40.9159 60.9804C39.1504 62.7326 37.0935 64.1078 34.8013 65.0701C32.4278 66.0661 29.9075 66.5723 27.3113 66.5723C24.7159 66.5723 22.1956 66.0661 19.8221 65.0701C17.5299 64.1078 15.473 62.7326 13.7075 60.9804C12.4276 59.7078 11.3364 58.2691 10.4631 56.6995C10.1354 56.1086 9.84008 55.5076 9.58584 54.9113C8.58227 52.5549 8.07298 50.0552 8.07298 47.4786C8.07298 46.927 8.09667 46.3698 8.14484 45.8236C8.19142 45.2822 8.26327 44.7391 8.35566 44.2039C8.44883 43.6781 8.5649 43.1484 8.70229 42.6312C8.8381 42.1179 8.99759 41.6054 9.17446 41.1086C9.19815 41.042 9.26842 41.0075 9.33711 41.0318L15.3822 43.1554C15.4493 43.1774 15.4848 43.2502 15.4612 43.3168C15.3443 43.6436 15.2417 43.9774 15.1524 44.3112C15.0632 44.6506 14.9874 44.9946 14.9274 45.3386C14.8658 45.6841 14.8192 46.0383 14.7884 46.3941C14.7576 46.7514 14.7418 47.1158 14.7418 47.4786C14.7418 49.1642 15.0735 50.7973 15.7288 52.3332C16.3621 53.8197 17.2693 55.155 18.4245 56.2991C19.5789 57.4471 20.922 58.3459 22.4198 58.9743C23.9674 59.6247 25.6129 59.9531 27.3113 59.9531C29.0105 59.9531 30.656 59.6247 32.2036 58.9743C33.6999 58.3459 35.0445 57.4471 36.1997 56.3006C37.3556 55.1534 38.2621 53.8181 38.8946 52.3332C39.5499 50.7973 39.8815 49.1642 39.8815 47.4786C39.8815 47.1158 39.8657 46.7514 39.835 46.3941C39.8042 46.0446 39.7576 45.6888 39.696 45.3386C39.636 44.9961 39.5602 44.6506 39.471 44.3097C39.3944 44.0221 39.3012 43.7188 39.193 43.407L39.1622 43.3184L39.1433 43.2714C38.7161 42.0858 38.1144 40.9777 37.3525 39.9763C36.585 38.9662 35.6722 38.0807 34.6379 37.3417C33.5933 36.5965 32.4468 36.0174 31.2292 35.6201C29.9714 35.2119 28.6536 35.0042 27.3113 35.0042C24.3211 35.0042 21.5039 33.8546 19.3775 31.7686L19.3301 31.7248C17.1975 29.6074 16.0233 26.795 16.0233 23.8031C16.0233 23.159 16.0786 22.5125 16.19 21.8825C16.2981 21.2658 16.4592 20.6546 16.6684 20.0653C17.4407 17.9033 18.843 16.0484 20.7246 14.7053C22.3258 13.562 24.2145 12.856 26.1846 12.6632C27.0373 12.5778 27.5758 12.5778 28.4325 12.6632C30.4049 12.856 32.2928 13.562 33.8933 14.7053C35.7757 16.0484 37.1772 17.8994 37.9478 20.0621C37.9597 20.0888 37.9613 20.1201 37.951 20.1507C37.9392 20.186 37.9099 20.2173 37.872 20.2291L31.8277 22.3542C31.7677 22.3746 31.7006 22.3487 31.6714 22.2908C31.6698 22.2876 31.6596 22.2633 31.6596 22.2586C31.3453 21.3865 30.7705 20.6287 30.0006 20.077C29.2142 19.5175 28.2825 19.219 27.3097 19.219C26.3354 19.219 25.4052 19.5175 24.6196 20.077C23.8458 20.6287 23.271 21.3888 22.9551 22.2743C22.8699 22.5141 22.8043 22.7641 22.7601 23.0148C22.7151 23.2719 22.6914 23.5375 22.6914 23.8031C22.6914 25.0272 23.1715 26.1783 24.0448 27.0434C24.9165 27.9085 26.0764 28.385 27.3097 28.385C29.3587 28.385 31.3761 28.7039 33.3066 29.3316C33.7133 29.4648 34.1373 29.62 34.5692 29.7955C35.9731 30.362 37.3075 31.0947 38.5329 31.9692C40.1113 33.0984 41.5065 34.451 42.6767 35.9931C43.8397 37.5228 44.7628 39.2146 45.4166 41.02L45.4781 41.1956C45.6479 41.6822 45.7971 42.1641 45.9203 42.6312C46.0577 43.1484 46.1746 43.6781 46.2654 44.2039C46.3601 44.7375 46.4304 45.2806 46.4786 45.8236Z" fill="#B98943"/>
<path d="M55.256 29.2828L54.1569 29.9504C53.7969 29.4003 53.2157 29.0736 52.502 29.0736C51.3405 29.0736 50.4782 29.9175 50.4782 31.1541C50.4838 32.4298 51.3705 33.233 52.502 33.233C53.2102 33.233 53.7874 32.9149 54.1719 32.3616L55.2142 33.1053C54.6473 33.9312 53.6824 34.4492 52.5098 34.4492C50.5382 34.4492 49.1494 33.0645 49.1494 31.1541C49.1494 29.242 50.5382 27.8574 52.5098 27.8574C53.6911 27.8574 54.7341 28.3942 55.256 29.2828Z" fill="#B98943"/>
<path fill-rule="evenodd" clip-rule="evenodd" d="M58.1774 34.4454C59.56 34.4454 60.5793 33.4549 60.5793 32.1298C60.5793 30.8031 59.56 29.8142 58.1774 29.8142C56.8011 29.8142 55.7857 30.8031 55.7857 32.1298C55.7857 33.4549 56.8011 34.4454 58.1774 34.4454ZM58.1774 33.342C57.5047 33.342 57.0017 32.8437 57.0017 32.1298C57.0017 31.4167 57.5047 30.9175 58.1774 30.9175C58.8501 30.9175 59.3578 31.4167 59.3578 32.1298C59.3578 32.8437 58.8501 33.342 58.1774 33.342Z" fill="#B98943"/>
<path d="M64.4712 30.9886H63.095V34.3347H61.9003V30.9886H61.0713V29.9347H61.9003V29.39C61.9003 28.3596 62.453 27.6833 63.4882 27.6833C64.093 27.6833 64.5123 27.8557 64.8494 28.0783L64.3749 28.9998C64.1554 28.8823 63.8956 28.7867 63.6169 28.7867C63.2726 28.7867 63.095 28.9967 63.095 29.4049V29.9347H64.4712V30.9886Z" fill="#B98943"/>
<path d="M66.9119 30.9886H68.2882V29.9347H66.9119V29.4049C66.9119 28.9967 67.0888 28.7867 67.4322 28.7867C67.7125 28.7867 67.9731 28.8823 68.1926 28.9998L68.6672 28.0783C68.33 27.8557 67.9099 27.6833 67.3059 27.6833C66.2708 27.6833 65.718 28.3596 65.718 29.39V29.9347H64.889V30.9886H65.718V34.3347H66.9119V30.9886Z" fill="#B98943"/>
<path fill-rule="evenodd" clip-rule="evenodd" d="M73.0755 32.1251C73.0755 32.2614 73.0668 32.4252 73.0534 32.5255H69.91C70.0387 33.1602 70.4856 33.4376 71.0494 33.4376C71.4331 33.4376 71.8485 33.2833 72.1698 33.0153L72.8694 33.7785C72.3672 34.2369 71.7269 34.4438 70.9807 34.4438C69.6218 34.4438 68.6799 33.5278 68.6799 32.1439C68.6799 30.7592 69.5942 29.8142 70.9207 29.8142C72.1967 29.8142 73.07 30.7545 73.0755 32.1251ZM69.9148 31.7168H71.8745C71.7664 31.155 71.4245 30.836 70.912 30.836C70.349 30.836 70.0198 31.1714 69.9148 31.7168Z" fill="#B98943"/>
<path fill-rule="evenodd" clip-rule="evenodd" d="M78.0424 32.5255C78.0558 32.4252 78.0645 32.2614 78.0645 32.1251C78.059 30.7545 77.1865 29.8142 75.9097 29.8142C74.5832 29.8142 73.6688 30.7592 73.6688 32.1439C73.6688 33.5278 74.6108 34.4438 75.9697 34.4438C76.7159 34.4438 77.3562 34.2369 77.8592 33.7785L77.1588 33.0153C76.8383 33.2833 76.4221 33.4376 76.0384 33.4376C75.4754 33.4376 75.0277 33.1602 74.899 32.5255H78.0424ZM76.8659 31.7168H74.9038C75.0088 31.1714 75.3388 30.836 75.901 30.836C76.4119 30.836 76.7577 31.155 76.8659 31.7168Z" fill="#B98943"/>
<path fill-rule="evenodd" clip-rule="evenodd" d="M55.5295 42.4375H54.1675L53.6076 40.958H50.878L50.319 42.4375H48.9878L51.4805 36.0808H53.0376L55.5295 42.4375ZM51.3155 39.7912H53.1694L52.2464 37.3345L51.3155 39.7912Z" fill="#B98943"/>
<path d="M57.9623 38.909C58.4621 38.9137 59.0251 39.0963 59.3764 39.2679L59.7799 38.3464C59.1893 38.0604 58.635 37.9295 57.9268 37.9295C56.7597 37.9295 56.0546 38.4647 56.0546 39.3682C56.0546 40.1174 56.5623 40.5625 57.5872 40.7035L57.9489 40.7529C58.4621 40.8258 58.6848 40.9433 58.6848 41.1565C58.6848 41.4151 58.421 41.5702 57.8668 41.5702C57.1988 41.5702 56.7376 41.3884 56.3571 41.1392L55.8865 42.0365C56.4629 42.4424 57.254 42.5544 57.8581 42.5544C59.1427 42.5544 59.8928 41.9691 59.8928 41.0609C59.8928 40.3172 59.3575 39.8893 58.3966 39.7452L58.0041 39.6856C57.6007 39.6276 57.2817 39.5626 57.2817 39.3095C57.2817 39.0689 57.5099 38.909 57.9623 38.909Z" fill="#B98943"/>
<path d="M63.9948 39.2679C63.6442 39.0963 63.0812 38.9137 62.5806 38.909C62.129 38.909 61.9008 39.0689 61.9008 39.3095C61.9008 39.5626 62.219 39.6276 62.6233 39.6856L63.0173 39.7452C63.9766 39.8893 64.5112 40.3172 64.5112 41.0609C64.5112 41.9691 63.7611 42.5544 62.4764 42.5544C61.8724 42.5544 61.0828 42.4424 60.5048 42.0365L60.9762 41.1392C61.356 41.3884 61.8171 41.5702 62.4859 41.5702C63.0394 41.5702 63.3031 41.4151 63.3031 41.1565C63.3031 40.9433 63.0812 40.8258 62.5672 40.7529L62.2056 40.7035C61.1815 40.5625 60.673 40.1174 60.673 39.3682C60.673 38.4647 61.3789 37.9295 62.5451 37.9295C63.2549 37.9295 63.8084 38.0604 64.3991 38.3464L63.9948 39.2679Z" fill="#B98943"/>
<path fill-rule="evenodd" clip-rule="evenodd" d="M67.4421 42.5563C68.8246 42.5563 69.844 41.565 69.844 40.2399C69.844 38.9132 68.8246 37.9235 67.4421 37.9235C66.0658 37.9235 65.0504 38.9132 65.0504 40.2399C65.0504 41.565 66.0658 42.5563 67.4421 42.5563ZM67.4421 41.4521C66.7685 41.4521 66.2664 40.953 66.2664 40.2399C66.2664 39.5268 66.7685 39.0276 67.4421 39.0276C68.1148 39.0276 68.6217 39.5268 68.6217 40.2399C68.6217 40.953 68.1148 41.4521 67.4421 41.4521Z" fill="#B98943"/>
<path d="M74.4804 38.7541L73.6206 39.4672C73.3489 39.1812 73.0607 39.0268 72.6738 39.0268C72.0564 39.0268 71.5621 39.508 71.5621 40.2383C71.5621 40.9741 72.0516 41.4514 72.6683 41.4514C73.0528 41.4514 73.3821 41.2774 73.6348 41.0071L74.4859 41.7272C74.069 42.2585 73.4453 42.5547 72.7038 42.5547C71.2929 42.5547 70.3461 41.5736 70.3461 40.2383C70.3461 38.9085 71.2929 37.9235 72.7038 37.9235C73.4453 37.9235 74.073 38.2229 74.4804 38.7541Z" fill="#B98943"/>
<path d="M75.8736 37.3527C76.3023 37.3527 76.6379 37.0251 76.6379 36.5981C76.6379 36.171 76.3023 35.8348 75.8736 35.8348C75.4433 35.8348 75.1132 36.171 75.1132 36.5981C75.1132 37.0251 75.4433 37.3527 75.8736 37.3527Z" fill="#B98943"/>
<path d="M75.2838 42.4368H76.4784V38.0368H75.2838V42.4368Z" fill="#B98943"/>
<path fill-rule="evenodd" clip-rule="evenodd" d="M81.895 42.4411H80.7272V41.956C80.4398 42.3102 80.0111 42.5555 79.4023 42.5555C78.1808 42.5555 77.2554 41.5611 77.2554 40.2391C77.2554 38.9179 78.1808 37.9235 79.4023 37.9235C80.0111 37.9235 80.4367 38.1688 80.7272 38.5285V38.0411H81.895V42.4411ZM78.4769 40.2391C78.4769 40.9122 78.9222 41.4521 79.6218 41.4521C80.3024 41.4521 80.7643 40.9342 80.7643 40.2391C80.7643 39.5448 80.3024 39.0268 79.6218 39.0268C78.9222 39.0268 78.4769 39.5668 78.4769 40.2391Z" fill="#B98943"/>
<path d="M84.7254 39.0953H86.3314V38.0413H84.7254V36.735H83.5316V38.0413H82.6772V39.0953H83.5316V40.7981C83.5316 41.9375 84.0938 42.5557 85.1921 42.5557C85.8237 42.5557 86.2714 42.3544 86.6607 42.0926L86.2217 41.1664C85.9801 41.3106 85.6729 41.4524 85.3895 41.4524C85.0191 41.4524 84.7254 41.251 84.7254 40.7033V39.0953Z" fill="#B98943"/>
<path d="M88.7392 36.5981C88.7392 37.0251 88.4044 37.3527 87.9756 37.3527C87.5453 37.3527 87.2153 37.0251 87.2153 36.5981C87.2153 36.171 87.5453 35.8348 87.9756 35.8348C88.4044 35.8348 88.7392 36.171 88.7392 36.5981Z" fill="#B98943"/>
<path d="M88.5804 42.4368H87.3858V38.0368H88.5804V42.4368Z" fill="#B98943"/>
<path fill-rule="evenodd" clip-rule="evenodd" d="M91.7689 42.5563C93.1515 42.5563 94.1709 41.565 94.1709 40.2399C94.1709 38.9132 93.1515 37.9235 91.7689 37.9235C90.3927 37.9235 89.3773 38.9132 89.3773 40.2399C89.3773 41.565 90.3927 42.5563 91.7689 42.5563ZM91.7689 41.4521C91.0946 41.4521 90.5932 40.953 90.5932 40.2399C90.5932 39.5268 91.0946 39.0276 91.7689 39.0276C92.4417 39.0276 92.9494 39.5268 92.9494 40.2399C92.9494 40.953 92.4417 41.4521 91.7689 41.4521Z" fill="#B98943"/>
<path d="M99 39.6404V42.4418H97.8061V40.022C97.8061 39.3865 97.4864 39.0362 96.9407 39.0362C96.4299 39.0362 96.0043 39.3685 96.0043 40.0306V42.4418H94.8104V38.0418H95.9719V38.559C96.2878 38.0928 96.7726 37.9235 97.2755 37.9235C98.2815 37.9235 99 38.6186 99 39.6404Z" fill="#B98943"/>
<path d="M51.8997 19.9052C52.5993 19.9052 53.2136 20.1371 53.7166 20.4451L54.3206 19.4099C53.516 18.9335 52.7699 18.7337 51.8721 18.7337C50.5101 18.7337 49.321 19.4232 49.321 20.7499C49.321 21.8979 50.1445 22.3932 51.2736 22.5703L51.6818 22.633C52.5725 22.7748 53.0391 22.9378 53.0391 23.3774C53.0391 23.8679 52.4896 24.1453 51.7813 24.1453C50.9578 24.1453 50.2029 23.8272 49.741 23.4589L49.077 24.4807C49.7631 25.0308 50.807 25.3121 51.7782 25.3121C53.1536 25.3121 54.398 24.6445 54.398 23.241C54.398 22.1346 53.5026 21.6487 52.3577 21.4614L51.9961 21.4019C51.2286 21.2765 50.6743 21.1347 50.6743 20.6684C50.6743 20.1865 51.182 19.9052 51.8997 19.9052Z" fill="#B98943"/>
<path fill-rule="evenodd" clip-rule="evenodd" d="M59.8454 23C59.8454 24.3212 58.9224 25.3156 57.7009 25.3156C57.1055 25.3156 56.6847 25.0845 56.3965 24.7436V27.0169H55.2074V20.802H56.3728V21.2886C56.661 20.9297 57.0866 20.6844 57.6954 20.6844C58.9224 20.6844 59.8454 21.6789 59.8454 23ZM56.3365 23C56.3365 23.6951 56.7984 24.2123 57.4759 24.2123C58.1794 24.2123 58.6184 23.6724 58.6184 23C58.6184 22.3277 58.1794 21.7878 57.4759 21.7878C56.7984 21.7878 56.3365 22.3058 56.3365 23Z" fill="#B98943"/>
<path fill-rule="evenodd" clip-rule="evenodd" d="M64.7859 23.3958C64.7986 23.2955 64.8072 23.1317 64.8072 22.9953C64.8017 21.6248 63.9292 20.6844 62.6524 20.6844C61.3267 20.6844 60.4124 21.6295 60.4124 23.0141C60.4124 24.3988 61.3536 25.3149 62.7132 25.3149C63.4586 25.3149 64.0998 25.1072 64.6012 24.6488L63.9024 23.8863C63.5802 24.1535 63.1657 24.3079 62.7819 24.3079C62.219 24.3079 61.7705 24.0305 61.6418 23.3958H64.7859ZM63.6063 22.5871H61.6465C61.7523 22.0417 62.0816 21.7063 62.6446 21.7063C63.1546 21.7063 63.5005 22.0252 63.6063 22.5871Z" fill="#B98943"/>
<path d="M69.527 21.5151L68.6664 22.2282C68.3955 21.9422 68.1073 21.787 67.7204 21.787C67.103 21.787 66.6087 22.2697 66.6087 23C66.6087 23.7351 67.0974 24.2123 67.7141 24.2123C68.0986 24.2123 68.4279 24.0383 68.6813 23.768L69.5325 24.4881C69.1148 25.0194 68.4918 25.3156 67.7512 25.3156C66.3394 25.3156 65.3919 24.3353 65.3919 23C65.3919 21.6702 66.3394 20.6844 67.7512 20.6844C68.4918 20.6844 69.1196 20.9838 69.527 21.5151Z" fill="#B98943"/>
<path d="M70.8192 20.1127C71.248 20.1127 71.5835 19.7852 71.5835 19.3581C71.5835 18.9302 71.248 18.5956 70.8192 18.5956C70.3881 18.5956 70.0588 18.9302 70.0588 19.3581C70.0588 19.7852 70.3881 20.1127 70.8192 20.1127Z" fill="#B98943"/>
<path d="M70.2294 25.1968H71.424V20.7968H70.2294V25.1968Z" fill="#B98943"/>
<path fill-rule="evenodd" clip-rule="evenodd" d="M76.7761 25.202H75.6091V24.7169C75.3209 25.0711 74.8922 25.3164 74.2834 25.3164C73.0611 25.3164 72.1381 24.322 72.1381 23C72.1381 21.6789 73.0611 20.6844 74.2834 20.6844C74.8922 20.6844 75.3178 20.9297 75.6091 21.2894V20.802H76.7761V25.202ZM73.358 23C73.358 23.6732 73.8025 24.2131 74.5029 24.2131C75.1835 24.2131 75.647 23.6951 75.647 23C75.647 22.3058 75.1835 21.7878 74.5029 21.7878C73.8025 21.7878 73.358 22.3277 73.358 23Z" fill="#B98943"/>
<path d="M77.796 18.6616H78.9898V25.1986H77.796V18.6616Z" fill="#B98943"/>
<path d="M83.4321 21.8562H81.8261V23.4634C81.8261 24.0135 82.1198 24.2126 82.4901 24.2126C82.7736 24.2126 83.0807 24.0715 83.3223 23.9273L83.7614 24.8528C83.3721 25.1153 82.9244 25.3159 82.2927 25.3159C81.1944 25.3159 80.6322 24.6984 80.6322 23.559V21.8562H79.7779V20.8023H80.6322V19.496H81.8261V20.8023H83.4321V21.8562Z" fill="#B98943"/>
<path d="M84.2934 27.0322H85.6026L88.993 20.7985H87.6839L86.5035 23.0592L85.2867 20.7985H83.9334L85.8442 24.2637L84.2934 27.0322Z" fill="#B98943"/>
</svg>
